 <svg display="none" xmlns="http://www.w3.org/2000/svg">
  <symbol id="instagram" viewBox="0 0 15 15">
    <g>
      <path fill-rule="evenodd"
 d="M1.924,0.1 L13.75,0.1 C14.133,0.1 15.0,0.783 15.0,1.924 L15.0,13.74 C15.0,14.216 14.133,15.0 13.75,15.0 L1.924,15.0 C0.865,15.0 0.0,14.216 0.0,13.74 L0.0,1.924 C0.0,0.783 0.865,0.1 1.924,0.1 L1.924,0.1 ZM10.926,1.665 C10.555,1.665 10.251,1.969 10.251,2.341 L10.251,3.957 C10.251,4.329 10.555,4.632 10.926,4.632 L12.622,4.632 C12.993,4.632 13.297,4.329 13.297,3.957 L13.297,2.341 C13.297,1.969 12.993,1.665 12.622,1.665 L10.926,1.665 L10.926,1.665 ZM13.304,6.342 L11.984,6.342 C12.109,6.750 12.177,7.182 12.177,7.629 C12.177,10.125 10.89,12.147 7.513,12.147 C4.939,12.147 2.851,10.125 2.851,7.629 C2.851,7.182 2.918,6.750 3.43,6.342 L1.666,6.342 L1.666,12.679 C1.666,13.7 1.934,13.275 2.262,13.275 L12.708,13.275 C13.36,13.275 13.305,13.7 13.305,12.679 L13.305,6.342 L13.304,6.342 ZM7.513,4.547 C5.850,4.547 4.501,5.854 4.501,7.466 C4.501,9.79 5.850,10.386 7.513,10.386 C9.177,10.386 10.527,9.79 10.527,7.466 C10.527,5.854 9.178,4.547 7.513,4.547 Z"/>
    </g>
  </symbol>
  <symbol id="fb" viewBox="0 0 8 19">
    <g>
      <path fill-rule="evenodd"
 d="M1.729,3.679 C1.729,4.158 1.729,6.295 1.729,6.295 L0.0,6.295 L0.0,9.494 L1.729,9.494 L1.729,18.999 L5.281,18.999 L5.281,9.494 L7.664,9.494 C7.664,9.494 7.887,7.960 7.996,6.283 C7.685,6.283 5.294,6.283 5.294,6.283 C5.294,6.283 5.294,4.422 5.294,4.96 C5.294,3.769 5.681,3.329 6.64,3.329 C6.446,3.329 7.253,3.329 7.999,3.329 C7.999,2.894 7.999,1.389 7.999,0.0 C7.2,0.0 5.868,0.0 5.368,0.0 C1.641,0.0 1.729,3.201 1.729,3.679 Z"/>
    </g>
  </symbol>
  <symbol id="twitter" viewBox="0 0 16 13">
    <g>
      <path fill-rule="evenodd"
 d="M15.558,0.239 C14.923,0.616 14.220,0.888 13.473,1.36 C12.874,0.397 12.21,0.0 11.77,0.0 C9.264,0.0 7.794,1.469 7.794,3.281 C7.794,3.538 7.824,3.789 7.879,4.29 C5.152,3.892 2.733,2.585 1.114,0.599 C0.831,1.83 0.670,1.647 0.670,2.249 C0.670,3.388 1.250,4.393 2.130,4.981 C1.592,4.963 1.86,4.815 0.643,4.569 L0.643,4.610 C0.643,6.200 1.775,7.527 3.276,7.829 C3.1,7.903 2.711,7.944 2.411,7.944 C2.199,7.944 1.994,7.923 1.793,7.885 C2.211,9.189 3.423,10.138 4.859,10.165 C3.736,11.45 2.320,11.569 0.783,11.569 C0.517,11.569 0.256,11.554 0.0,11.525 C1.452,12.455 3.177,12.999 5.31,12.999 C11.68,12.999 14.370,7.997 14.370,3.659 L14.359,3.234 C15.2,2.773 15.560,2.195 15.999,1.537 C15.411,1.798 14.779,1.975 14.115,2.54 C14.793,1.648 15.312,1.4 15.558,0.239 Z"/>
    </g>
  </symbol>
  <symbol id="ok" viewBox="0 0 12 19">
    <g>
      <path fill-rule="evenodd"
 d="M11.686,11.506 C11.67,12.109 10.323,12.546 9.496,12.851 C8.714,13.139 7.858,13.284 7.10,13.380 C7.138,13.513 7.198,13.578 7.278,13.654 C8.429,14.753 9.585,15.848 10.732,16.950 C11.123,17.326 11.205,17.791 10.989,18.229 C10.754,18.706 10.227,19.20 9.711,18.987 C9.384,18.965 9.128,18.810 8.902,18.593 C8.33,17.763 7.148,16.947 6.298,16.101 C6.50,15.854 5.931,15.901 5.712,16.115 C4.838,16.970 3.950,17.812 3.57,18.649 C2.656,19.25 2.179,19.92 1.714,18.878 C1.219,18.650 0.905,18.170 0.929,17.688 C0.946,17.362 1.114,17.113 1.350,16.889 C2.489,15.809 3.625,14.725 4.761,13.642 C4.836,13.570 4.906,13.493 5.16,13.382 C3.466,13.228 2.69,12.866 0.873,11.976 C0.725,11.866 0.571,11.759 0.436,11.636 C0.86,11.158 0.139,10.610 0.274,10.46 C0.628,9.563 1.223,9.434 1.842,9.711 C1.961,9.765 2.76,9.832 2.185,9.904 C4.414,11.360 7.476,11.400 9.714,9.970 C9.936,9.808 10.173,9.677 10.447,9.609 C10.981,9.479 11.479,9.666 11.766,10.109 C12.93,10.617 12.89,11.112 11.686,11.506 ZM5.960,9.617 C3.196,9.608 0.929,7.429 0.945,4.798 C0.961,2.137 3.229,0.6 6.21,0.0 C8.818,0.7 11.63,2.183 11.49,4.871 C11.35,7.497 8.752,9.626 5.960,9.617 ZM6.1,2.456 C4.617,2.455 3.512,3.514 3.523,4.832 C3.533,6.134 4.638,7.167 6.13,7.162 C7.385,7.158 8.477,6.110 8.472,4.804 C8.467,3.497 7.372,2.457 6.1,2.456 Z"/>
    </g>
  </symbol>
  <symbol id="vk" viewBox="0 0 48 48">
    <g>
      <path d="M45.763,35.202c-1.797-3.234-6.426-7.12-8.337-8.811c-0.523-0.463-0.579-1.264-0.103-1.776 c3.647-3.919,6.564-8.422,7.568-11.143C45.334,12.27,44.417,11,43.125,11l-3.753,0c-1.237,0-1.961,0.444-2.306,1.151 c-3.031,6.211-5.631,8.899-7.451,10.47c-1.019,0.88-2.608,0.151-2.608-1.188c0-2.58,0-5.915,0-8.28 c0-1.147-0.938-2.075-2.095-2.075L18.056,11c-0.863,0-1.356,0.977-0.838,1.662l1.132,1.625c0.426,0.563,0.656,1.248,0.656,1.951 L19,23.556c0,1.273-1.543,1.895-2.459,1.003c-3.099-3.018-5.788-9.181-6.756-12.128C9.505,11.578,8.706,11.002,7.8,11l-3.697-0.009 c-1.387,0-2.401,1.315-2.024,2.639c3.378,11.857,10.309,23.137,22.661,24.36c1.217,0.12,2.267-0.86,2.267-2.073l0-3.846 c0-1.103,0.865-2.051,1.977-2.079c0.039-0.001,0.078-0.001,0.117-0.001c3.267,0,6.926,4.755,8.206,6.979 c0.368,0.64,1.056,1.03,1.8,1.03l4.973,0C45.531,38,46.462,36.461,45.763,35.202z"/>
    </g>
  </symbol>
  <symbol id="arrow-right" viewBox="0 0 9 15">
    <g>
      <path fill-rule="evenodd" clip-rule="evenodd" d="M1.70711 14.7071L8.07107 8.34315C8.46159 7.95262 8.46159 7.31946 8.07107 6.92893L1.70711 0.564971C1.31658 0.174447 0.683418 0.174447 0.292893 0.564971C-0.0976311 0.955495 -0.0976311 1.58866 0.292893 1.97919L5.94975 7.63604L0.292893 13.2929C-0.0976311 13.6834 -0.0976311 14.3166 0.292893 14.7071C0.683418 15.0976 1.31658 15.0976 1.70711 14.7071Z"/>
    </g>
  </symbol>
</svg>
